<svg xmlns="http://www.w3.org/2000/svg" xmlns:xlink="http://www.w3.org/1999/xlink" width="5000" zoomAndPan="magnify" viewBox="0 0 3750 1499.999933" height="2000" preserveAspectRatio="xMidYMid meet" version="1.0"><defs><g/><clipPath id="c2bc7b3bd4"><path d="M 0 623 L 943.5 623 L 943.5 1204.566406 L 0 1204.566406 Z M 0 623 " clip-rule="nonzero"/></clipPath><clipPath id="4a0630dfb7"><path d="M 0 261.066406 L 943.5 261.066406 L 943.5 569 L 0 569 Z M 0 261.066406 " clip-rule="nonzero"/></clipPath></defs><g clip-path="url(#c2bc7b3bd4)"><path fill="#3478f6" d="M 243.808594 623.527344 L 0.101562 623.527344 L 0.101562 938.117188 C 0.101562 1085.429688 119.542969 1204.835938 266.820312 1204.835938 L 677.15625 1204.835938 C 824.464844 1204.835938 943.871094 1085.429688 943.871094 938.117188 L 943.871094 623.527344 L 700.203125 623.527344 C 716.101562 656.628906 725.027344 693.765625 725.027344 732.953125 C 725.027344 872.601562 611.636719 985.992188 471.988281 985.992188 C 332.335938 985.992188 218.949219 872.601562 218.949219 732.953125 C 218.949219 693.765625 227.871094 656.628906 243.808594 623.527344 Z M 243.808594 623.527344 " fill-opacity="1" fill-rule="evenodd"/></g><path fill="#004aad" d="M 656.636719 732.953125 C 656.636719 735.972656 656.5625 738.992188 656.414062 742.011719 C 656.265625 745.03125 656.042969 748.042969 655.75 751.050781 C 655.453125 754.058594 655.082031 757.054688 654.636719 760.042969 C 654.195312 763.035156 653.679688 766.011719 653.089844 768.972656 C 652.5 771.9375 651.839844 774.886719 651.105469 777.816406 C 650.371094 780.75 649.5625 783.660156 648.6875 786.554688 C 647.808594 789.445312 646.863281 792.3125 645.84375 795.160156 C 644.824219 798.003906 643.738281 800.820312 642.582031 803.613281 C 641.425781 806.40625 640.199219 809.167969 638.910156 811.898438 C 637.617188 814.632812 636.257812 817.328125 634.835938 819.996094 C 633.410156 822.660156 631.921875 825.289062 630.367188 827.878906 C 628.8125 830.472656 627.199219 833.023438 625.519531 835.539062 C 623.839844 838.050781 622.101562 840.519531 620.300781 842.945312 C 618.5 845.375 616.640625 847.757812 614.726562 850.09375 C 612.808594 852.429688 610.832031 854.714844 608.804688 856.953125 C 606.773438 859.195312 604.691406 861.382812 602.554688 863.519531 C 600.417969 865.65625 598.230469 867.738281 595.992188 869.769531 C 593.753906 871.796875 591.464844 873.769531 589.128906 875.6875 C 586.792969 877.605469 584.410156 879.464844 581.984375 881.265625 C 579.554688 883.0625 577.085938 884.804688 574.574219 886.480469 C 572.0625 888.160156 569.507812 889.777344 566.917969 891.332031 C 564.324219 892.886719 561.695312 894.375 559.03125 895.796875 C 556.367188 897.222656 553.667969 898.582031 550.9375 899.875 C 548.203125 901.164062 545.441406 902.390625 542.648438 903.546875 C 539.859375 904.703125 537.039062 905.789062 534.195312 906.808594 C 531.347656 907.824219 528.480469 908.773438 525.589844 909.652344 C 522.695312 910.527344 519.785156 911.332031 516.855469 912.066406 C 513.921875 912.800781 510.976562 913.464844 508.011719 914.054688 C 505.046875 914.644531 502.070312 915.160156 499.082031 915.601562 C 496.09375 916.046875 493.09375 916.417969 490.085938 916.710938 C 487.078125 917.007812 484.066406 917.230469 481.046875 917.378906 C 478.03125 917.527344 475.007812 917.601562 471.988281 917.601562 C 468.964844 917.601562 465.945312 917.527344 462.925781 917.378906 C 459.910156 917.230469 456.894531 917.007812 453.886719 916.710938 C 450.882812 916.417969 447.882812 916.046875 444.894531 915.601562 C 441.90625 915.160156 438.929688 914.644531 435.964844 914.054688 C 433 913.464844 430.050781 912.800781 427.121094 912.066406 C 424.1875 911.332031 421.277344 910.527344 418.386719 909.652344 C 415.496094 908.773438 412.625 907.824219 409.78125 906.808594 C 406.933594 905.789062 404.117188 904.703125 401.324219 903.546875 C 398.53125 902.390625 395.769531 901.164062 393.039062 899.875 C 390.308594 898.582031 387.609375 897.222656 384.941406 895.796875 C 382.277344 894.375 379.648438 892.886719 377.058594 891.332031 C 374.464844 889.777344 371.914062 888.160156 369.398438 886.480469 C 366.886719 884.804688 364.417969 883.0625 361.992188 881.265625 C 359.5625 879.464844 357.183594 877.605469 354.847656 875.6875 C 352.511719 873.769531 350.222656 871.796875 347.984375 869.769531 C 345.742188 867.738281 343.554688 865.65625 341.417969 863.519531 C 339.28125 861.382812 337.199219 859.195312 335.171875 856.953125 C 333.140625 854.714844 331.167969 852.429688 329.25 850.09375 C 327.332031 847.757812 325.476562 845.375 323.675781 842.945312 C 321.875 840.519531 320.136719 838.050781 318.457031 835.535156 C 316.777344 833.023438 315.160156 830.472656 313.605469 827.878906 C 312.054688 825.289062 310.566406 822.660156 309.140625 819.996094 C 307.714844 817.328125 306.355469 814.632812 305.066406 811.898438 C 303.773438 809.167969 302.550781 806.40625 301.390625 803.613281 C 300.234375 800.820312 299.148438 798.003906 298.128906 795.160156 C 297.113281 792.3125 296.164062 789.445312 295.289062 786.550781 C 294.410156 783.660156 293.605469 780.75 292.871094 777.816406 C 292.136719 774.886719 291.472656 771.9375 290.882812 768.972656 C 290.296875 766.011719 289.777344 763.035156 289.335938 760.042969 C 288.890625 757.054688 288.523438 754.058594 288.226562 751.050781 C 287.929688 748.042969 287.707031 745.03125 287.558594 742.011719 C 287.410156 738.992188 287.335938 735.972656 287.335938 732.953125 C 287.335938 729.929688 287.410156 726.910156 287.558594 723.890625 C 287.707031 720.871094 287.929688 717.859375 288.226562 714.851562 C 288.523438 711.84375 288.890625 708.847656 289.335938 705.855469 C 289.777344 702.867188 290.296875 699.890625 290.882812 696.925781 C 291.472656 693.964844 292.136719 691.015625 292.871094 688.085938 C 293.605469 685.152344 294.410156 682.242188 295.289062 679.347656 C 296.164062 676.457031 297.113281 673.589844 298.128906 670.742188 C 299.148438 667.898438 300.234375 665.078125 301.390625 662.289062 C 302.546875 659.496094 303.773438 656.734375 305.066406 654 C 306.355469 651.269531 307.714844 648.570312 309.140625 645.90625 C 310.5625 643.242188 312.054688 640.613281 313.605469 638.019531 C 315.160156 635.429688 316.777344 632.875 318.457031 630.363281 C 320.136719 627.851562 321.875 625.382812 323.675781 622.953125 C 325.476562 620.527344 327.332031 618.144531 329.25 615.808594 C 331.167969 613.472656 333.140625 611.1875 335.167969 608.945312 C 337.199219 606.707031 339.28125 604.519531 341.417969 602.382812 C 343.554688 600.246094 345.742188 598.164062 347.984375 596.132812 C 350.222656 594.105469 352.511719 592.132812 354.847656 590.214844 C 357.183594 588.296875 359.5625 586.4375 361.992188 584.636719 C 364.417969 582.835938 366.886719 581.097656 369.402344 579.417969 C 371.914062 577.742188 374.464844 576.125 377.058594 574.570312 C 379.648438 573.015625 382.277344 571.527344 384.941406 570.105469 C 387.609375 568.679688 390.308594 567.320312 393.039062 566.027344 C 395.769531 564.738281 398.53125 563.511719 401.324219 562.355469 C 404.117188 561.199219 406.933594 560.113281 409.78125 559.09375 C 412.625 558.078125 415.496094 557.128906 418.386719 556.25 C 421.277344 555.375 424.1875 554.570312 427.121094 553.835938 C 430.050781 553.101562 433 552.4375 435.964844 551.847656 C 438.929688 551.257812 441.90625 550.742188 444.894531 550.300781 C 447.882812 549.855469 450.882812 549.484375 453.890625 549.191406 C 456.894531 548.894531 459.910156 548.671875 462.925781 548.523438 C 465.945312 548.375 468.964844 548.300781 471.988281 548.300781 C 475.007812 548.300781 478.03125 548.375 481.046875 548.523438 C 484.066406 548.671875 487.078125 548.894531 490.085938 549.191406 C 493.09375 549.484375 496.09375 549.855469 499.082031 550.300781 C 502.070312 550.742188 505.046875 551.257812 508.011719 551.847656 C 510.972656 552.4375 513.921875 553.101562 516.851562 553.835938 C 519.785156 554.570312 522.695312 555.375 525.589844 556.25 C 528.480469 557.128906 531.347656 558.078125 534.195312 559.09375 C 537.039062 560.113281 539.859375 561.199219 542.648438 562.355469 C 545.441406 563.511719 548.203125 564.738281 550.9375 566.027344 C 553.667969 567.320312 556.367188 568.679688 559.03125 570.105469 C 561.695312 571.527344 564.324219 573.015625 566.917969 574.570312 C 569.507812 576.125 572.0625 577.742188 574.574219 579.421875 C 577.085938 581.097656 579.554688 582.835938 581.984375 584.636719 C 584.410156 586.4375 586.792969 588.296875 589.128906 590.214844 C 591.464844 592.132812 593.753906 594.105469 595.992188 596.132812 C 598.230469 598.164062 600.417969 600.246094 602.554688 602.382812 C 604.691406 604.519531 606.773438 606.707031 608.804688 608.945312 C 610.832031 611.1875 612.808594 613.472656 614.726562 615.808594 C 616.640625 618.144531 618.5 620.527344 620.300781 622.953125 C 622.101562 625.382812 623.839844 627.851562 625.519531 630.363281 C 627.199219 632.875 628.8125 635.429688 630.367188 638.019531 C 631.921875 640.613281 633.410156 643.242188 634.835938 645.90625 C 636.257812 648.570312 637.617188 651.269531 638.910156 654 C 640.199219 656.734375 641.425781 659.496094 642.582031 662.289062 C 643.738281 665.078125 644.824219 667.898438 645.84375 670.742188 C 646.863281 673.589844 647.808594 676.457031 648.6875 679.347656 C 649.5625 682.242188 650.371094 685.152344 651.105469 688.085938 C 651.839844 691.015625 652.5 693.964844 653.089844 696.925781 C 653.679688 699.890625 654.195312 702.867188 654.640625 705.855469 C 655.082031 708.847656 655.453125 711.84375 655.75 714.851562 C 656.042969 717.859375 656.265625 720.871094 656.414062 723.890625 C 656.5625 726.910156 656.636719 729.929688 656.636719 732.953125 Z M 656.636719 732.953125 " fill-opacity="1" fill-rule="nonzero"/><g clip-path="url(#4a0630dfb7)"><path fill="#004aad" d="M 0.101562 568.816406 L 279.472656 568.816406 C 325.910156 514.414062 394.949219 479.910156 471.988281 479.910156 C 549.0625 479.910156 618.101562 514.414062 664.539062 568.816406 L 943.871094 568.816406 L 943.871094 527.785156 C 943.871094 380.472656 824.464844 261.066406 677.15625 261.066406 L 266.820312 261.066406 C 119.542969 261.066406 0.101562 380.472656 0.101562 527.785156 Z M 745.542969 404.683594 C 775.738281 404.683594 800.253906 429.199219 800.253906 459.394531 C 800.253906 489.589844 775.738281 514.105469 745.542969 514.105469 C 715.351562 514.105469 690.832031 489.589844 690.832031 459.394531 C 690.832031 429.199219 715.351562 404.683594 745.542969 404.683594 Z M 745.542969 404.683594 " fill-opacity="1" fill-rule="evenodd"/></g><g fill="#000000" fill-opacity="1"><g transform="translate(1230.235417, 987.944055)"><g><path d="M 114.78125 -473.375 L 114.78125 -393.234375 L 20.375 -393.234375 L 20.375 -473.375 Z M 115.453125 -349.09375 L 115.453125 0 L 20.375 0 L 20.375 -349.09375 Z M 115.453125 -349.09375 "/></g></g></g><g fill="#000000" fill-opacity="1"><g transform="translate(1387.803573, 987.944055)"><g><path d="M 448.25 -350.453125 C 495.34375 -350.898438 533.601562 -336.863281 563.03125 -308.34375 C 594.726562 -278.457031 610.578125 -236.578125 610.578125 -182.703125 L 610.578125 0 L 522.28125 0 L 522.28125 -176.578125 C 522.28125 -183.367188 521.148438 -191.066406 518.890625 -199.671875 C 515.722656 -210.085938 511.421875 -219.367188 505.984375 -227.515625 C 491.492188 -250.609375 470.210938 -262.15625 442.140625 -262.15625 C 412.253906 -262.15625 390.519531 -250.609375 376.9375 -227.515625 C 371.957031 -218.921875 368.335938 -209.1875 366.078125 -198.3125 C 364.265625 -190.613281 363.359375 -182.914062 363.359375 -175.21875 L 363.359375 0 L 274.390625 0 L 274.390625 -176.578125 C 274.390625 -183.367188 273.253906 -191.066406 270.984375 -199.671875 C 268.273438 -210.085938 264.203125 -219.367188 258.765625 -227.515625 C 243.828125 -250.609375 222.546875 -262.15625 194.921875 -262.15625 C 164.585938 -262.15625 142.628906 -250.609375 129.046875 -227.515625 C 124.066406 -218.921875 120.441406 -209.1875 118.171875 -198.3125 C 116.359375 -190.613281 115.453125 -182.914062 115.453125 -175.21875 L 115.453125 0 L 20.375 0 L 20.375 -351.125 L 115.453125 -351.125 L 115.453125 -314.453125 C 137.640625 -338.453125 166.164062 -350.453125 201.03125 -350.453125 C 252.195312 -351.359375 293.628906 -331.660156 325.328125 -291.359375 L 353.84375 -317.859375 C 380.5625 -339.585938 412.03125 -350.453125 448.25 -350.453125 Z M 448.25 -350.453125 "/></g></g></g><g fill="#000000" fill-opacity="1"><g transform="translate(2040.488221, 987.944055)"><g><path d="M 271.671875 -351.125 L 366.75 -351.125 L 366.75 0 L 271.671875 0 L 271.671875 -39.390625 C 252.203125 -14.035156 222.769531 -1.359375 183.375 -1.359375 C 135.382812 -0.898438 94.179688 -17.648438 59.765625 -51.609375 C 25.359375 -85.578125 7.925781 -126.78125 7.46875 -175.21875 C 7.019531 -223.21875 23.773438 -264.421875 57.734375 -298.828125 C 91.691406 -333.242188 132.894531 -350.675781 181.34375 -351.125 C 221.1875 -351.125 251.296875 -338.222656 271.671875 -312.421875 Z M 243.140625 -115.453125 C 259.890625 -132.210938 268.265625 -152.585938 268.265625 -176.578125 C 268.265625 -201.035156 259.664062 -221.410156 242.46875 -237.703125 C 225.257812 -254.910156 205.109375 -263.0625 182.015625 -262.15625 C 158.015625 -262.15625 137.640625 -253.78125 120.890625 -237.03125 C 104.140625 -220.28125 95.765625 -199.90625 95.765625 -175.90625 C 95.765625 -152.363281 104.367188 -131.988281 121.578125 -114.78125 C 138.328125 -98.03125 158.703125 -89.65625 182.703125 -89.65625 C 207.148438 -90.5625 227.296875 -99.160156 243.140625 -115.453125 Z M 243.140625 -115.453125 "/></g></g></g><g fill="#000000" fill-opacity="1"><g transform="translate(2449.350067, 987.944055)"><g><path d="M 281.171875 -350.453125 L 370.15625 -350.453125 L 370.15625 -0.671875 C 370.15625 47.316406 353.171875 88.289062 319.203125 122.25 C 285.703125 156.207031 244.953125 173.414062 196.953125 173.875 C 152.128906 174.320312 112.96875 159.601562 79.46875 129.71875 C 46.414062 100.738281 27.394531 64.289062 22.40625 20.375 L 112.0625 20.375 C 115.226562 34.863281 122.925781 48.222656 135.15625 60.453125 C 151.90625 77.203125 172.28125 85.578125 196.28125 85.578125 C 220.28125 85.578125 240.429688 76.972656 256.734375 59.765625 C 273.484375 43.015625 281.859375 22.867188 281.859375 -0.671875 L 281.171875 -35.3125 C 258.085938 -12.21875 230.015625 -0.671875 196.953125 -0.671875 C 148.503906 -0.222656 107.078125 -16.976562 72.671875 -50.9375 C 38.253906 -84.894531 21.046875 -126.097656 21.046875 -174.546875 C 20.597656 -222.992188 37.351562 -264.195312 71.3125 -298.15625 C 105.269531 -332.570312 146.472656 -350.003906 194.921875 -350.453125 C 233.410156 -350.453125 262.160156 -338.453125 281.171875 -314.453125 Z M 281.171875 -185.40625 C 279.359375 -205.332031 270.984375 -222.539062 256.046875 -237.03125 C 238.835938 -253.332031 218.460938 -261.484375 194.921875 -261.484375 C 171.378906 -261.484375 151.226562 -253.109375 134.46875 -236.359375 C 117.71875 -218.691406 109.34375 -198.3125 109.34375 -175.21875 C 109.34375 -151.675781 117.945312 -131.300781 135.15625 -114.09375 C 151.90625 -97.34375 172.28125 -88.96875 196.28125 -88.96875 C 220.726562 -89.875 240.878906 -98.476562 256.734375 -114.78125 C 270.765625 -128.8125 278.910156 -145.5625 281.171875 -165.03125 Z M 281.171875 -185.40625 "/></g></g></g><g fill="#000000" fill-opacity="1"><g transform="translate(2861.607849, 987.944055)"><g><path d="M 114.78125 -473.375 L 114.78125 -393.234375 L 20.375 -393.234375 L 20.375 -473.375 Z M 115.453125 -349.09375 L 115.453125 0 L 20.375 0 L 20.375 -349.09375 Z M 115.453125 -349.09375 "/></g></g></g><g fill="#000000" fill-opacity="1"><g transform="translate(3019.176076, 987.944055)"><g><path d="M 300.1875 -42.109375 C 267.132812 -14.035156 228.648438 0 184.734375 0 C 136.285156 -0.445312 95.082031 -17.878906 61.125 -52.296875 C 27.164062 -86.703125 10.410156 -127.90625 10.859375 -175.90625 C 11.316406 -224.351562 28.75 -265.554688 63.15625 -299.515625 C 97.570312 -333.472656 138.773438 -350.226562 186.765625 -349.78125 C 230.234375 -349.320312 268.269531 -334.832031 300.875 -306.3125 L 237.703125 -243.828125 C 222.316406 -255.140625 205.113281 -260.796875 186.09375 -260.796875 C 162.550781 -260.796875 142.175781 -252.648438 124.96875 -236.359375 C 108.21875 -219.597656 99.84375 -199.21875 99.84375 -175.21875 C 98.9375 -151.675781 107.082031 -131.300781 124.28125 -114.09375 C 140.582031 -97.800781 160.957031 -89.203125 185.40625 -88.296875 C 204.425781 -88.296875 221.632812 -93.953125 237.03125 -105.265625 Z M 300.1875 -42.109375 "/></g></g></g><g fill="#000000" fill-opacity="1"><g transform="translate(3351.970769, 987.944055)"><g><path d="M 271.671875 -351.125 L 366.75 -351.125 L 366.75 0 L 271.671875 0 L 271.671875 -39.390625 C 252.203125 -14.035156 222.769531 -1.359375 183.375 -1.359375 C 135.382812 -0.898438 94.179688 -17.648438 59.765625 -51.609375 C 25.359375 -85.578125 7.925781 -126.78125 7.46875 -175.21875 C 7.019531 -223.21875 23.773438 -264.421875 57.734375 -298.828125 C 91.691406 -333.242188 132.894531 -350.675781 181.34375 -351.125 C 221.1875 -351.125 251.296875 -338.222656 271.671875 -312.421875 Z M 243.140625 -115.453125 C 259.890625 -132.210938 268.265625 -152.585938 268.265625 -176.578125 C 268.265625 -201.035156 259.664062 -221.410156 242.46875 -237.703125 C 225.257812 -254.910156 205.109375 -263.0625 182.015625 -262.15625 C 158.015625 -262.15625 137.640625 -253.78125 120.890625 -237.03125 C 104.140625 -220.28125 95.765625 -199.90625 95.765625 -175.90625 C 95.765625 -152.363281 104.367188 -131.988281 121.578125 -114.78125 C 138.328125 -98.03125 158.703125 -89.65625 182.703125 -89.65625 C 207.148438 -90.5625 227.296875 -99.160156 243.140625 -115.453125 Z M 243.140625 -115.453125 "/></g></g></g></svg>